<svg width="51" height="73" viewBox="0 0 51 73" fill="none" xmlns="http://www.w3.org/2000/svg">
<path d="M25.375 0C11.3463 0 0 11.3463 0 25.375C0 31.6825 1.8125 37.5913 5.11125 42.92C8.555 48.5025 13.0862 53.2875 16.5662 58.87C18.27 61.5887 19.5025 64.1262 20.8075 67.0625C21.75 69.0563 22.5112 72.5 25.375 72.5C28.2388 72.5 29 69.0563 29.9062 67.0625C31.2475 64.1262 32.4438 61.5887 34.1475 58.87C37.6275 53.3237 42.1587 48.5388 45.6025 42.92C48.9375 37.5913 50.75 31.6825 50.75 25.375C50.75 11.3463 39.4037 0 25.375 0ZM25.375 35.3438C20.3725 35.3438 16.3125 31.2837 16.3125 26.2812C16.3125 21.2788 20.3725 17.2188 25.375 17.2188C30.3775 17.2188 34.4375 21.2788 34.4375 26.2812C34.4375 31.2837 30.3775 35.3438 25.375 35.3438Z" fill="#E7AD8E"/>
</svg>
