<svg width="294" height="118" viewBox="0 0 294 118" fill="none" xmlns="http://www.w3.org/2000/svg">
<path fill-rule="evenodd" clip-rule="evenodd" d="M119.963 49.0127C124.369 44.9062 121.734 33.031 110.997 35.0108C106.619 35.8494 103.382 39.5172 103.641 45.5232C104.056 55.1327 111.987 60.8849 120.925 60.4891C131.304 60.0295 138.094 50.1869 137.583 38.3466C137.137 28.0078 127.436 16.6604 110.449 17.4126C99.6044 17.8928 89.0576 24.2913 77.8356 33.7284C67.3944 42.5722 60.1195 52.0064 39.0576 50.79C31.6108 50.346 25.3266 51.269 19.2693 53.5144C25.8311 58.0378 30.6086 64.4884 38.121 69.3995C45.5006 74.1876 52.0637 76.7767 55.8234 78.3295C71.1713 84.8278 78.6736 78.6931 102.065 91.5834C114.02 98.1459 127.479 106.103 140.801 100.098C139.5 97.4905 138.573 94.6947 137.939 91.8001C117.201 93.1911 107.107 82.5488 94.071 76.5069C89.3498 74.309 82.9468 71.4978 75.2549 70.2911C65.6824 68.7808 57.902 67.492 58.4251 59.9471C70.8825 63.3927 79.9516 47.3458 94.7289 47.5081C94.6661 47.0381 94.6457 46.5662 94.6235 46.0515C94.3831 34.586 101.592 27.5616 111.133 26.3655C121.055 25.1525 127.757 30.9591 129.436 37.418C130.66 42.1777 128.485 48.8072 123.129 51.5803L119.963 49.0127ZM0.285612 55.2146C17.8103 60.0262 16.3531 66.581 32.706 77.6768C42.5008 84.3351 51.7828 87.9644 56.3233 88.9238C68.191 91.493 80.0615 90.1937 97.2169 99.2338C114.068 108.116 126.223 117.334 145.92 107.565C151.572 113.633 159.887 117.477 170.647 117C205.088 115.475 210.506 81.7097 225.348 78.4736C243.976 74.4251 253.671 72.8783 265.784 54.5905C272.322 44.802 283.166 39.379 293.451 34.7973C285.896 25.9338 282.004 33.1121 263.82 26.7824C249.686 21.8636 235.381 12.0095 220.37 11.3417C210.461 10.8779 200.563 14.6258 192.689 14.1148C178.429 13.1559 160.545 0.0217937 145.354 0.0927487C139.117 0.153996 130.708 2.97631 125.423 9.3567C120.557 7.72398 115.009 7.02404 108.916 7.46576C97.1947 8.28566 83.7321 13.9966 70.4626 26.1463C57.0293 38.4321 50.4784 41.0432 40.3776 41.0606C29.087 41.0448 5.65692 41.9963 0.285612 55.2146ZM137.292 82.7166C138.153 70.2138 146.689 59.5202 160.861 57.4743C168.074 56.4242 177.151 58.2573 182.802 64.2824C203.229 69.4813 203.355 49.7901 221.863 45.9189C215.963 42.9565 209.442 41.354 202.915 42.5457C167.334 49.1071 157.428 28.0979 147.367 36.8819C149.31 54.3753 137.979 69.1469 120.314 69.9292C111.249 70.3306 102.393 64.7912 97.8089 56.9137C91.6714 55.3372 86.1449 59.0635 80.5374 62.8792C87.8443 64.0171 93.2545 66.4424 98.1745 68.3306C112.546 73.8406 119.958 83.3122 137.292 82.7166ZM187.62 73.6539C187.886 74.8887 188.068 76.17 188.17 77.5409C188.712 87.1448 182.915 97.3733 171.081 97.5534C164.802 97.6166 155.381 92.747 155.953 80.4289L160.915 79.3496C160.907 86.055 166.397 89.3365 171.668 88.5443C175.714 87.8923 179.215 84.4277 179.055 78.7612C178.904 72.3206 174.018 65.3161 162.459 66.9454C154.57 68.0684 146.978 74.0782 147.487 85.8756C148.058 99.0887 157.803 107.554 171.275 106.958C195.421 105.889 204.563 71.8722 222.263 68.9393C248.013 64.7044 253.868 56.7944 257.405 51.2221C260.028 47.1086 263.822 42.5566 268.989 38.3734C252.354 35.4996 239.491 22.6589 220.575 21.0036C211.244 20.1703 202.102 23.7128 193.985 23.4705C176.647 22.9917 159.106 9.92835 146.526 9.5398C142.742 9.40646 137.586 10.8813 134.321 13.9056C139.186 17.4726 142.917 22.2932 145.156 27.9536C159.835 17.9766 167.692 39.7213 201.17 33.5968C211.151 31.7795 238.872 34.8501 235.399 54.6895C228.019 49.9014 217.767 55.2553 213.939 58.9923C207.337 65.345 202.228 74.8123 187.62 73.6539Z" fill="#423025"/>
</svg>
