<svg width="568" height="719" viewBox="0 0 568 719" fill="none" xmlns="http://www.w3.org/2000/svg">
<path d="M421.933 345.386C414.553 232.467 317.805 148.946 205.879 158.792C93.9522 168.638 9.16395 268.129 16.5436 381.048C23.9233 493.968 120.672 577.488 232.598 567.642C344.524 557.795 429.312 458.305 421.933 345.386Z" stroke="#423025" stroke-width="6"/>
<path d="M550.905 207.681C543.525 94.762 446.777 11.2412 334.85 21.0875C222.924 30.9337 138.136 130.424 145.515 243.344C152.895 356.263 249.644 439.783 361.57 429.937C473.496 420.091 558.284 320.601 550.905 207.681Z" stroke="#423025" stroke-width="6"/>
<path d="M549.048 474.697C541.668 361.777 444.919 278.256 332.993 288.103C221.067 297.949 136.278 397.44 143.658 510.359C151.038 623.278 247.786 706.798 359.712 696.952C471.639 687.106 556.427 587.616 549.048 474.697Z" stroke="#423025" stroke-width="6"/>
</svg>
